HIERARCHY
ROOT joint_Root
{
	OFFSET 0.0 0.0 0.0
	CHANNELS 6 Xposition Yposition Zposition Zrotation Xrotation Yrotation 
	JOINT Hips
	{
		OFFSET 4.5925 91.4895 -427.239
		CHANNELS 6 Xposition Yposition Zposition Zrotation Xrotation Yrotation 
		JOINT Spine
		{
			OFFSET 15.7357 0.0 0.0
			CHANNELS 6 Xposition Yposition Zposition Zrotation Xrotation Yrotation 
			JOINT Chest
			{
				OFFSET 8.98455 -0.406207 0.0
				CHANNELS 6 Xposition Yposition Zposition Zrotation Xrotation Yrotation 
				JOINT Neck
				{
					OFFSET 16.3773 0.0 0.0
					CHANNELS 6 Xposition Yposition Zposition Zrotation Xrotation Yrotation 
					JOINT Head
					{
						OFFSET 6.45672 0.0 0.0
						CHANNELS 6 Xposition Yposition Zposition Zrotation Xrotation Yrotation 
						End Site
						{
							OFFSET 0.0 0.0 0.0
						}
					}
				}
				JOINT Shoulder_L
				{
					OFFSET 12.9942 -0.242716 4.98039
					CHANNELS 6 Xposition Yposition Zposition Zrotation Xrotation Yrotation 
					JOINT UpperArm_L
					{
						OFFSET 5.34809 0.0 0.0
						CHANNELS 6 Xposition Yposition Zposition Zrotation Xrotation Yrotation 
						JOINT LowerArm_L
						{
							OFFSET 24.3286 1.87007e-05 0.0
							CHANNELS 6 Xposition Yposition Zposition Zrotation Xrotation Yrotation 
							JOINT Hand_L
							{
								OFFSET 22.2916 0.0 0.0
								CHANNELS 6 Xposition Yposition Zposition Zrotation Xrotation Yrotation 
								End Site
								{
									OFFSET 0.0 0.0 0.0
								}
							}
						}
					}
				}
				JOINT Shoulder_R
				{
					OFFSET 12.9945 -0.242716 -4.98039
					CHANNELS 6 Xposition Yposition Zposition Zrotation Xrotation Yrotation 
					JOINT UpperArm_R
					{
						OFFSET -5.34813 0.0 0.0
						CHANNELS 6 Xposition Yposition Zposition Zrotation Xrotation Yrotation 
						JOINT LowerArm_R
						{
							OFFSET -24.3289 0.000322201 0.0
							CHANNELS 6 Xposition Yposition Zposition Zrotation Xrotation Yrotation 
							JOINT Hand_R
							{
								OFFSET -22.2915 -0.000108084 0.0
								CHANNELS 6 Xposition Yposition Zposition Zrotation Xrotation Yrotation 
								End Site
								{
									OFFSET 0.0 0.0 0.0
								}
							}
						}
					}
				}
			}
		}
		JOINT UpperLeg_L
		{
			OFFSET -2.19248 -6.46944 0.0
			CHANNELS 6 Xposition Yposition Zposition Zrotation Xrotation Yrotation 
			JOINT LowerLeg_L
			{
				OFFSET 39.0811 0.0 -1.23785e-05
				CHANNELS 6 Xposition Yposition Zposition Zrotation Xrotation Yrotation 
				JOINT Foot_L
				{
					OFFSET 40.9854 0.0 -1.26872e-05
					CHANNELS 6 Xposition Yposition Zposition Zrotation Xrotation Yrotation 
					JOINT Toes_L
					{
						OFFSET 11.7543 0.0 0.0
						CHANNELS 6 Xposition Yposition Zposition Zrotation Xrotation Yrotation 
						End Site
						{
							OFFSET 0.0 0.0 0.0
						}
					}
				}
			}
		}
		JOINT UpperLeg_R
		{
			OFFSET -2.19251 6.46944 0.0
			CHANNELS 6 Xposition Yposition Zposition Zrotation Xrotation Yrotation 
			JOINT LowerLeg_R
			{
				OFFSET -39.0811 -0.00228153 -0.0401928
				CHANNELS 6 Xposition Yposition Zposition Zrotation Xrotation Yrotation 
				JOINT Foot_R
				{
					OFFSET -40.9854 0.0 0.0
					CHANNELS 6 Xposition Yposition Zposition Zrotation Xrotation Yrotation 
					JOINT Toes_R
					{
						OFFSET -11.7543 0.0 0.0
						CHANNELS 6 Xposition Yposition Zposition Zrotation Xrotation Yrotation 
						End Site
						{
							OFFSET 0.0 0.0 0.0
						}
					}
				}
			}
		}
	}
}
MOTION
Frames:	4
Frame Time:	0.0333333
0.000000 0.000000 0.000000 0.000000 0.000000 -0.000000 2.744190 90.709900 -0.410629 89.902700 -5.211620 11.180500 15.735700 0.000005 -0.000001 88.316300 81.756800 -88.428500 8.984550 -0.406207 -0.000000 8.713060 -0.482947 -0.187584 16.377300 -0.000001 -0.000001 2.242990 -3.011070 4.082570 6.456720 -0.000001 -0.000000 -16.870100 -3.048780 3.958040 12.994200 -0.242716 4.980390 -91.438500 5.604370 -75.579300 5.348090 -0.000007 -0.000001 -62.585800 37.461700 -18.446200 24.328600 0.000019 0.000005 8.590430 22.343300 -21.671200 22.291600 -0.000001 0.000005 8.345710 5.324020 -0.617375 12.994500 -0.242716 -4.980390 88.797600 11.040900 -83.745200 -5.348130 -0.000001 -0.000004 -62.380500 32.822800 -14.037000 -24.328900 0.000322 -0.000009 2.052490 5.216300 -21.520600 -22.291500 -0.000108 -0.000004 14.463800 5.418830 -3.557060 -2.192480 -6.469440 -0.000000 -176.635000 -16.001000 0.912086 39.081100 -0.000007 -0.000012 -0.102595 0.169742 31.149600 40.985400 -0.000006 -0.000013 2.499310 4.148910 -70.939000 11.754300 -0.000000 0.000003 -0.000089 -0.000927 -16.613200 -2.192510 6.469440 -0.000001 170.881000 20.520800 -177.946000 -39.081100 -0.002282 -0.040193 -0.215873 0.372987 30.439600 -40.985400 0.000008 0.000006 1.000900 13.703500 -69.916900 -11.754300 -0.000006 -0.000006 -0.001866 -0.027027 -17.672100
0.000000 0.000000 0.000000 0.000000 0.000000 -0.000000 2.791180 90.706700 -0.528536 89.883400 -5.054550 11.369200 15.735700 0.000005 -0.000001 88.164400 81.585000 -88.323000 8.984550 -0.406207 -0.000000 9.054960 -0.538017 -0.274292 16.377300 -0.000001 -0.000001 2.278570 -3.173860 4.192120 6.456720 -0.000001 -0.000000 -16.892000 -3.106090 4.159070 12.994200 -0.242716 4.980390 -91.421500 5.642930 -75.836200 5.348090 -0.000007 -0.000001 -61.369400 38.326700 -20.192100 24.328600 0.000019 0.000005 9.666090 22.965000 -23.583200 22.291600 -0.000001 0.000005 7.117700 5.361330 -1.722730 12.994500 -0.242716 -4.980390 88.794000 10.944500 -83.672800 -5.348130 -0.000001 -0.000004 -62.415000 32.477000 -14.825800 -24.328900 0.000322 -0.000009 2.559600 5.823410 -23.785900 -22.291500 -0.000108 -0.000004 15.924800 5.433020 -4.038900 -2.192480 -6.469440 -0.000000 -176.643000 -15.876700 0.961009 39.081100 -0.000007 -0.000012 -0.099009 0.163314 31.226600 40.985400 -0.000006 -0.000013 2.557120 4.168710 -70.890500 11.754300 -0.000000 0.000003 -0.000096 -0.000991 -16.615600 -2.192510 6.469440 -0.000001 170.782000 20.664500 -177.811000 -39.081100 -0.002282 -0.040193 -0.215972 0.372632 30.474700 -40.985400 0.000008 0.000006 0.983631 13.703000 -69.854100 -11.754300 -0.000006 -0.000006 -0.002014 -0.028897 -17.748100
0.000000 0.000000 0.000000 0.000000 0.000000 -0.000000 2.833830 90.713800 -0.673273 89.905900 -4.839840 11.423500 15.735700 0.000005 -0.000001 87.958800 81.490600 -88.166000 8.984550 -0.406207 -0.000000 9.241180 -0.605501 -0.365027 16.377300 -0.000001 -0.000001 2.452430 -3.288120 4.135620 6.456720 -0.000001 -0.000000 -16.805800 -3.235970 4.327360 12.994200 -0.242716 4.980390 -91.426800 5.729250 -75.991000 5.348090 -0.000007 -0.000001 -59.351700 38.699500 -22.477600 24.328600 0.000019 0.000005 10.482600 22.364300 -25.932400 22.291600 -0.000001 0.000005 7.219490 5.372980 -2.078680 12.994500 -0.242716 -4.980390 88.788300 10.766300 -83.539900 -5.348130 -0.000001 -0.000004 -62.324400 31.967300 -15.532800 -24.328900 0.000322 -0.000009 2.607600 5.222100 -26.595500 -22.291500 -0.000108 -0.000004 17.484400 5.445340 -4.470890 -2.192480 -6.469440 -0.000000 -176.733000 -15.767900 0.872670 39.081100 -0.000007 -0.000012 -0.094484 0.155746 31.243600 40.985400 -0.000006 -0.000013 2.620650 4.213640 -70.788900 11.754300 -0.000000 0.000003 -0.000085 -0.000898 -16.612100 -2.192510 6.469440 -0.000001 170.720000 20.759200 -177.834000 -39.081100 -0.002282 -0.040193 -0.217260 0.374554 30.492500 -40.985400 0.000008 0.000006 0.949525 13.641500 -69.769800 -11.754300 -0.000006 -0.000006 -0.001904 -0.027509 -17.691700
0.000000 0.000000 0.000000 0.000000 0.000000 -0.000000 2.853480 90.710000 -0.807597 89.921100 -4.629420 11.551000 15.735700 0.000005 -0.000001 87.683400 81.407400 -87.937800 8.984550 -0.406207 -0.000000 9.404070 -0.694359 -0.451308 16.377300 -0.000001 -0.000001 2.766430 -3.388960 4.075760 6.456720 -0.000001 -0.000000 -16.545800 -3.323470 4.327550 12.994200 -0.242716 4.980390 -91.472600 5.920830 -76.006700 5.348090 -0.000007 -0.000001 -56.910700 37.947200 -24.992300 24.328600 0.000019 0.000005 11.578300 21.827800 -28.855700 22.291600 -0.000001 0.000005 8.612290 5.373320 -2.090470 12.994500 -0.242716 -4.980390 88.769000 10.667400 -83.378200 -5.348130 -0.000001 -0.000004 -61.758800 31.492900 -16.463500 -24.328900 0.000322 -0.000009 2.581690 4.557270 -29.585700 -22.291500 -0.000108 -0.000004 18.772400 5.458930 -4.957530 -2.192480 -6.469440 -0.000000 -176.730000 -15.744600 0.843965 39.081100 -0.000007 -0.000012 -0.094790 0.155776 31.321000 40.985400 -0.000006 -0.000013 2.700120 4.412030 -70.719700 11.754300 -0.000000 0.000003 -0.000087 -0.000912 -16.612700 -2.192510 6.469440 -0.000001 170.661000 20.865500 -177.798000 -39.081100 -0.002282 -0.040193 -0.215477 0.370409 30.568100 -40.985400 0.000008 0.000006 0.940124 13.541400 -69.729600 -11.754300 -0.000006 -0.000006 -0.001865 -0.027007 -17.671300
